<?xml version="1.0" encoding="UTF-8"?>
<!DOCTYPE svg PUBLIC "-//W3C//DTD SVG 1.1//EN" "http://www.w3.org/Graphics/SVG/1.1/DTD/svg11.dtd">
<!-- Creator: CorelDRAW -->
<svg xmlns="http://www.w3.org/2000/svg" xml:space="preserve" width="17mm" height="7mm" version="1.1" style="shape-rendering:geometricPrecision; text-rendering:geometricPrecision; image-rendering:optimizeQuality; fill-rule:evenodd; clip-rule:evenodd"
viewBox="0 0 1700 700"
 xmlns:xlink="http://www.w3.org/1999/xlink"
 xmlns:xodm="http://www.corel.com/coreldraw/odm/2003">
 <defs>
  <style type="text/css">
   <![CDATA[
    .fil0 {fill:white}
    .fil1 {fill:url(#id0)}
   ]]>
  </style>
  <linearGradient id="id0" gradientUnits="userSpaceOnUse" x1="432.41" y1="504.21" x2="489.8" y2="237.17">
   <stop offset="0" style="stop-opacity:1; stop-color:#330099"/>
   <stop offset="1" style="stop-opacity:1; stop-color:#9933CC"/>
  </linearGradient>
 </defs>
 <g id="Capa_x0020_1">
  <metadata id="CorelCorpID_0Corel-Layer"/>
  <g id="_2386241025120">
   <path class="fil0" d="M626.19 448.04c-4.38,3.04 -9.06,5.67 -14.31,8.05 -21.18,9.61 -44.58,12.51 -67.65,12.54 -3.66,0 -7.1,-0.14 -10.44,-0.37l0 40.55c0,10.79 -7.62,19.82 -18.25,21.65 -9.64,1.64 -46.78,-5.95 -58.77,-7.79 -2.88,-0.45 -5.76,-0.91 -8.65,-1.36 -14.59,-2.27 -25.42,-8.63 -24.62,-25.34 0.02,-19.31 0.02,-38.65 0.02,-58 -1.54,1.58 -3.1,3.02 -4.64,4.22 -4.16,3.25 -7.1,5.75 -11.86,8.49 -4.29,2.47 -8.51,4.58 -13.08,6.53 -32.95,14.06 -92.89,14.36 -127.38,5.05 -20.74,-5.6 -38.7,-15.09 -51.54,-32.7 -0.51,-0.7 -1,-1.41 -1.48,-2.12l-0.01 29.4c0,11.23 -8.34,20.56 -19.5,21.81 -6.6,0.75 -15.45,-1.41 -22.16,-2.47 -5.57,-0.87 -11.15,-1.78 -16.73,-2.64 -11.09,-1.71 -24.74,-3.05 -35.38,-5.82 -9.8,-2.55 -16.42,-11.12 -16.42,-21.25l-0.01 -217.21 -55.32 -0.14c-10.49,-0.03 -19.3,-7.21 -21.44,-17.49 -2.38,-11.47 -0.66,-37.55 -0.66,-50.53 0,-6.44 -0.14,-10.93 3.28,-17.01 4,-7.1 10.99,-11.19 19.14,-11.19l220.36 0c6.06,0 11.28,2.17 15.56,6.46 4.27,4.29 6.42,9.52 6.4,15.58l-0.19 52.29c-0.01,4.04 -1.13,7.83 -3.05,11.08 6.34,-0.92 12.43,-1.45 17.85,-1.54 30.69,-3.03 79.97,1.9 105.23,19.52 10.45,7.29 17.24,14 23.82,25.07 0.84,1.41 1.61,2.85 2.32,4.31 4.97,-8.94 11.41,-17.01 19.33,-23.33 3.93,-3.14 7.74,-5.98 12.09,-8.56 30.72,-18.31 77.59,-20.92 112.2,-14.66 21.98,3.98 40.85,11.88 55.35,24.96 -0.12,-1.26 -0.13,-2.52 -0.03,-3.76 -13.35,-10.41 -20.02,-29.38 -9.51,-47.61 4.59,-7.96 14.16,-15.18 21.75,-20.43 19.27,-13.35 40.27,-24.83 62.73,-31.83 53.95,-16.8 108.36,-10.44 155.08,21.87 7.33,5.07 15.12,11.01 22.03,17.12 2.41,-1.47 5.14,-2.49 8.09,-2.95l27.5 -4.31 -18.19 -12.15c-9.54,-6.22 -21.28,-12.97 -31.7,-17.86 -33.46,-15.68 -67.21,-27.57 -104.55,-28.71 -52.64,-1.61 -97.19,11.92 -140.69,41.3 -8.99,6.07 -18.87,13.78 -26.52,21.45 -30.13,30.19 -76.38,-2.52 -61.13,-39.53 3.23,-7.85 7.47,-11.03 12.92,-16.64 6.45,-6.64 14.63,-12.64 21.94,-18.39 13.35,-10.51 33.23,-22.98 48.6,-30.22 29.9,-14.08 54.61,-22.94 87.41,-28.39 11.78,-1.96 22.41,-2.14 34.07,-3.34 12.44,-1.27 26.69,-0.35 39.19,0.77 31.73,2.82 63.55,10.88 93.08,22.74 28.38,11.4 62.04,29.13 86.6,47.29 6.13,4.54 10.64,6.7 15.15,13.66 10.03,15.47 7.32,32.17 -1.86,43.59 1.53,0.78 2.99,1.76 4.38,2.94 5.09,4.32 7.75,10.07 7.75,16.75l0.01 42.26c4.08,-0.03 8.15,-0.07 12.23,-0.07l30.11 0c1.07,-0.02 2.15,-0.05 3.27,0.01 1.12,0.06 2.07,0.18 3.17,0.4l1.33 0.31c3.11,0.61 6.12,1.88 8.78,3.83 5.81,4.11 9.11,10.51 9.11,17.83l0 2.65c28.08,-22.14 71.22,-26.02 105.22,-24.62 6.05,0.25 12.07,0.41 18.11,1.04 4.12,0.43 8.46,1.34 12.58,1.67 3.12,-0.16 6.11,0.37 9.07,1.59 6.82,1.39 13.77,3.31 20.82,5.91 17.41,6.42 32.43,16.76 42.58,32.55 1.81,2.82 3.41,5.76 4.8,8.82 12.45,-22.92 33.73,-38.27 63,-46.18 3.87,-1.04 7.89,-1.52 11.74,-2.4 3.37,-1.45 6.95,-1.94 10.46,-1.47 3.27,-0.12 7.77,-1.08 11.95,-1.29 16.16,-0.82 32.41,-0.45 48.58,-0.45 6.06,0 11.28,2.17 15.56,6.46 4.28,4.3 6.42,9.52 6.4,15.58l-0.2 53.91c-0.04,12.07 -9.89,21.88 -21.96,21.88 -9.59,0 -19.17,0 -28.76,0 -3.56,0 -14.61,-0.76 -16.62,-0.69 -1.11,3.1 -0.63,20.66 -0.63,25.58 0,19.68 3.26,113.21 -3.16,124.55 -1.03,1.81 -2.11,3.24 -3.58,4.71 -12.36,12.35 -60.93,5.09 -79.49,6.58 -5.73,1.1 -11.27,-0.06 -16.24,-3.41 -5.55,-3.75 -8.83,-9.19 -9.54,-15.85 -0.48,-4.42 -0.46,-8.82 -0.39,-13.23 -0.16,0.18 -0.31,0.35 -0.47,0.53 -1.5,2.27 -3.32,4.09 -5.66,5.71l-10.59 7.36c-0.31,0.22 -0.58,0.39 -0.9,0.59 -4.94,3.09 -10.23,5.47 -15.65,7.58 -30.41,11.82 -74.41,13.06 -106.6,8.73 -21.85,-2.93 -43.94,-9.52 -60.65,-22.7l-0.01 2.96c-0.04,12.08 -9.91,21.89 -21.98,21.88 -48.23,-0.05 -104.84,2.98 -137.71,-39.94 -23.38,-30.51 -20.59,-62.44 -20.59,-98.46l-0.01 -103.33c-0.03,0.01 -0.05,0.02 -0.08,0.02 -3.32,11.79 -33,50.45 -40.72,62.39 -6.82,10.53 -14.36,20.63 -21.43,30.99l6.14 9.12c1.42,2.06 2.84,4.31 4.41,6.42 1.08,1.45 1.94,2.92 2.93,4.4l16.73 24.65c3.35,4.64 6.63,9.7 9.99,14.7l28.93 42.95c3.35,4.96 4.51,10.65 3.45,16.19 2.39,1.48 4.62,3.23 6.65,5.26 12.85,12.84 14.79,33.39 4.52,48.39 -0.47,0.68 -0.89,1.23 -1.42,1.85l-3.34 3.91c-0.4,0.46 -0.74,0.84 -1.17,1.27 -1.71,1.7 -3.36,3.22 -4.96,4.5 -1.09,1.11 -2.26,2.38 -3.77,3.64 -10.11,8.43 -19.13,15.3 -30.3,22.37 -3.36,2.12 -6.83,3.99 -10.33,5.88 -56.7,30.53 -119.35,29.53 -174.17,-4.62 -9.78,-6.09 -17.97,-12.15 -27.05,-19.64l-7.24 -6.3c-13.96,-11.29 -17.13,-33.82 -7.25,-49.16 1.26,-1.96 2.66,-3.76 4.18,-5.41 -1.6,-1.57 -2.98,-3.43 -4.1,-5.53 -2.91,-5.46 -3.42,-11.45 -1.59,-17.01zm36.86 -56.02l35.43 -52.12c-5.51,-8.15 -11.67,-16.63 -17.09,-23.8 -1.6,-1.76 -2.88,-3.76 -3.82,-6 -0.84,-1.27 -1.86,-2.55 -2.78,-3.85l-13.22 -19.18 2.4 9.99c1.07,2.9 1.48,5.94 1.22,9.05 0.11,4.99 0.73,10.07 0.73,15.07 0,5.77 0,11.53 0,17.3 0,19.04 0.48,36.84 -2.87,53.54zm366.18 -64.17c-0.65,0 -1.31,0 -1.96,0l-37.57 0.01 -0.01 56.13c0,1.45 0.18,4.66 0.81,6.65l38.73 0.05c0,-20.94 0,-41.89 0,-62.84zm228.66 52.24c-0.01,-2.77 -0.04,-5.64 -0.07,-8.59 -2.44,2.64 -5.09,5.09 -7.89,7.36l7.96 1.23zm-438.14 -159.39c-4.86,-3.02 -9.82,-5.6 -15.1,-7.92 -28.4,-12.48 -57.95,-8.55 -85.71,3.61 -2.84,1.25 -5.39,2.5 -7.86,3.8l9.81 0c7.51,0 13.97,3.43 18.18,9.64l8.97 13.24c2.86,4.22 5.86,8.32 8.54,12.36l17.98 -25.82c4.23,-6.09 10.61,-9.42 18.02,-9.42 8.5,0 17.82,0.31 27.17,0.51zm-124.68 255.98c0.86,0.67 1.74,1.33 2.65,1.96 1.58,1.1 3.09,2.29 4.68,3.36 1.82,1.22 3.64,2.43 5.44,3.67 8.12,5.56 20.27,10.73 29.75,13.35 6.96,1.93 17.1,3.39 24.34,2.92 24.36,-1.59 44.71,-10.3 63.87,-25.04 0.09,-0.07 0.19,-0.15 0.29,-0.22l-25.37 0c-8.87,0 -16.46,-4.93 -19.73,-12.36 -0.46,-0.72 -1.38,-2.14 -2.3,-3.41 -1.87,-1.85 -3.36,-4.03 -4.45,-6.51 -4.87,-8.64 -11.67,-17.63 -17.05,-25.94l-0.61 -0.93c-0.28,0.43 -0.55,0.85 -0.83,1.27 -5.74,8.66 -12.57,17.95 -17.72,26.87 -1.02,2.09 -2.29,3.91 -3.83,5.5 -0.77,1.11 -1.55,2.39 -2.18,3.5 -3.77,7.49 -11.09,12.01 -19.58,12.01l-17.37 0zm-481.49 -156.44l0 19.62c3.85,-5.93 8.56,-11.28 13.95,-15.9 -6.55,-1.31 -11.66,-2.59 -13.95,-3.72zm0.03 -62.91c6.18,-9.48 13.74,-16.08 23.39,-22.41 3.2,-2.1 6.87,-4.04 10.87,-5.81l-34.25 0.01 -0.01 28.21zm1396.09 307.63c4.07,-3.39 8.65,-6.08 13.58,-8.08 6.12,-2.49 12.61,-3.69 19.21,-3.69 12.1,0 21.96,9.86 21.96,21.96l0 8.68c0,11.23 -8.5,20.53 -19.46,21.81l0 21.04c0,12.1 -9.86,21.96 -21.96,21.96l-8.68 0c-5.38,0 -10.32,-1.95 -14.14,-5.18 -1.27,0.77 -2.57,1.49 -3.91,2.15 -5.61,2.77 -11.68,4.24 -17.94,4.24 -6.53,0 -12.92,-1.28 -18.92,-3.86 -1.99,-0.86 -3.91,-1.83 -5.76,-2.93 -1.5,1.04 -3.08,1.97 -4.74,2.78 -4.73,2.32 -9.88,3.5 -15.15,3.5 -4.87,0 -9.66,-0.96 -14.14,-2.88 -1.9,-0.81 -3.71,-1.77 -5.43,-2.88 -1.5,0.9 -3.07,1.68 -4.7,2.35 -4.4,1.81 -9.08,2.71 -13.84,2.71l-19.87 0c-4.89,0 -9.41,-1.61 -13.06,-4.32 -1.02,0.52 -2.05,1.01 -3.11,1.47 -6,2.58 -12.4,3.86 -18.93,3.86 -5.89,0 -11.67,-1.04 -17.14,-3.15 -3.3,1.99 -7.17,3.14 -11.3,3.14 -4.83,0 -9.6,-0.83 -14.11,-2.58 -1.83,-0.71 -3.61,-1.55 -5.31,-2.51 -0.49,0.25 -0.99,0.5 -1.49,0.74 -5.55,2.64 -11.52,4.03 -17.67,4.04 -6.55,0.01 -12.97,-1.26 -18.98,-3.87 -3.95,-1.72 -7.63,-3.91 -10.98,-6.56 -3.53,2.88 -7.46,5.23 -11.69,7.03 -5.99,2.55 -12.37,3.81 -18.89,3.81 -6.54,0 -12.94,-1.27 -18.94,-3.88 -4.89,-2.13 -9.36,-5 -13.3,-8.56 -3.59,3.32 -7.61,6.12 -12,8.3 -5.61,2.77 -11.68,4.23 -17.94,4.24 -6.55,0.01 -12.96,-1.26 -18.98,-3.86 -4.13,-1.78 -7.96,-4.09 -11.42,-6.9 -3.36,2.92 -7.14,5.28 -11.25,7.05 -5.28,2.28 -10.91,3.41 -16.66,3.41 -5.61,0 -11.09,-1.05 -16.24,-3.17 -5.14,2.12 -10.62,3.17 -16.23,3.17 -5.77,0 -11.43,-1.13 -16.72,-3.43 -4.92,-2.14 -9.38,-5.11 -13.2,-8.88 -0.5,-0.49 -0.99,-0.99 -1.46,-1.51 -0.55,3.96 -1.67,7.81 -3.38,11.47 -2.36,5.06 -5.64,9.55 -9.75,13.32 -4.07,3.73 -8.78,6.59 -13.93,8.58 -5.31,2.06 -10.91,3.04 -16.6,3.04 -12.1,0 -21.96,-9.86 -21.96,-21.96l0 -8.13c-0.81,-0.56 -1.61,-1.15 -2.38,-1.77 -2.69,2 -5.61,3.66 -8.72,4.99 -5.28,2.25 -10.91,3.37 -16.64,3.37l-26.62 0c-12.1,0 -21.96,-9.86 -21.96,-21.96l0 -73.61c0,-12.1 9.86,-21.96 21.96,-21.96l25.1 0c5.74,0 11.36,1.12 16.64,3.37 5.1,2.18 9.7,5.28 13.59,9.24 3.06,3.1 5.6,6.63 7.59,10.48l3.83 0c4.23,0 8.19,1.21 11.55,3.29 3.35,-2.08 7.31,-3.29 11.54,-3.29l8.57 0c3.76,0 7.31,0.95 10.41,2.63l0 -3.55c0,-12.09 9.86,-21.96 21.96,-21.96l8.78 0c4.36,0 8.42,1.28 11.85,3.48 3.42,-2.2 7.48,-3.48 11.84,-3.48l8.77 0c4.34,0 8.39,1.27 11.8,3.45 3.41,-2.18 7.46,-3.45 11.8,-3.45l8.77 0c12.1,0 21.96,9.86 21.96,21.96l0 2.74c5.06,-1.75 10.36,-2.62 15.76,-2.62 4.79,0 9.5,0.68 14.04,2.07l0 -2.5c0,-12.1 9.86,-21.96 21.96,-21.96l8.57 0c12.1,0 21.96,9.86 21.96,21.96l0 0.52c5.01,0.44 9.91,1.65 14.57,3.63 4.03,1.72 7.81,3.93 11.23,6.62 3.46,-2.82 7.29,-5.14 11.41,-6.94 6.02,-2.63 12.42,-3.91 18.98,-3.91 0.24,0 0.48,0 0.72,0.01l0 -0.02c0,-12.09 9.86,-21.96 21.96,-21.96l8.57 0c12.1,0 21.96,9.86 21.96,21.96l0 2.34c4.48,-1.36 9.12,-2.02 13.84,-2.02 6.54,0 12.95,1.28 18.96,3.88 2.57,1.11 5.03,2.42 7.36,3.93 2.5,-1.9 5.25,-3.45 8.18,-4.66 4.32,-1.77 8.92,-2.64 13.6,-2.64l11.56 0c3.73,-6.84 10.99,-11.5 19.3,-11.5l8.67 0c8.67,0 16.2,5.07 19.76,12.4 3.55,0.34 6.86,1.54 9.72,3.38 0.53,-0.25 1.06,-0.49 1.59,-0.72 6.01,-2.59 12.41,-3.87 18.95,-3.87 6.54,0 12.94,1.28 18.94,3.87 4.51,1.95 8.68,4.52 12.4,7.7zm-1075.8 6.47c-4.53,-23.86 13.79,-45.23 37.91,-44.98 12.62,0.13 20.9,6.3 30.28,13.47 13.02,9.94 30.81,20.23 45.51,27.53 32.79,16.27 65.75,24.78 102.42,26.59 35.64,1.75 74.67,-7.11 107.22,-21.18 7.52,-3.25 14.83,-6.95 22.09,-10.74 9.71,-5.07 24.62,-14.19 32.86,-21.28 35.46,-30.54 83.32,16.52 54.6,52.61 -6.39,8.02 -27.36,21.65 -36.83,27.2 -16.02,9.38 -32.35,18.01 -49.63,24.85 -41.67,16.5 -80.28,24.44 -125.36,24.44 -70.37,0 -138.44,-26.2 -195.16,-66.9 -12.31,-8.83 -22.81,-15.28 -25.91,-31.61zm20.83 -259.01c-1.32,-0.07 -2.76,-0.05 -3.68,-0.05 -5.03,0 -11.15,-0.47 -16.35,-0.04 -0.41,1.49 -0.66,3.47 -0.76,4.47 -1.16,12.28 -0.15,27.91 -0.15,40.57 0,2.95 -0.09,13.84 0.02,15.54 0.2,-0.43 3.23,-0.49 4.77,-0.49 3.03,0 11.75,0.52 16.17,0.1 0.42,-1.72 0.68,-3.95 0.78,-5.08 1.2,-13.11 0.31,-27.03 0.31,-40.23 0,-2.74 -0.06,-10.8 -1.11,-14.79z"/>
   <path class="fil1" d="M577.4 369.44c-2.65,28.88 -19.1,24.94 -38.82,24.94 -6.78,0 -13.11,-0.4 -17.47,-3.84 -8.95,-7.09 -9.28,-18.92 -9.28,-33.17 0,-8.8 -0.38,-35.93 0.25,-42.64 1.2,-12.66 6.1,-22.46 18.11,-24.01 5.99,-0.78 14.49,-0.31 20.86,-0.31 6.64,0 13,0.41 17.3,3.82 8.43,6.68 9.45,19.37 9.45,32.98 0,13.29 0.77,29.41 -0.4,42.23zm456.53 183.62c2.83,0 5.5,0.54 8.02,1.61 2.52,1.08 4.71,2.56 6.56,4.44 1.85,1.88 3.31,4.07 4.39,6.55 1.07,2.49 1.61,5.18 1.61,8.07 0,6.52 -2.39,11.7 -7.16,15.53 2.56,1.88 4.65,4.3 6.25,7.26 1.62,2.96 2.42,6.15 2.42,9.58 0,2.82 -0.53,5.5 -1.61,8.02 -1.07,2.52 -2.54,4.7 -4.39,6.55 -1.85,1.85 -4.03,3.31 -6.55,4.39 -2.52,1.07 -5.2,1.61 -8.02,1.61l-26.62 0 0 -73.61 25.11 0 -0.01 0zm1.52 41.14c-0.14,0 -0.26,0.02 -0.36,0.05 -0.1,0.04 -0.22,0.06 -0.35,0.06l-17.15 0 0 23.59 17.85 0c1.62,0 3.15,-0.3 4.59,-0.91 1.44,-0.6 2.69,-1.44 3.73,-2.52 1.04,-1.07 1.88,-2.33 2.52,-3.78 0.64,-1.44 0.96,-2.97 0.96,-4.59 0,-1.61 -0.32,-3.14 -0.96,-4.58 -0.64,-1.45 -1.48,-2.71 -2.52,-3.79 -1.04,-1.07 -2.28,-1.93 -3.73,-2.57 -1.44,-0.64 -2.97,-0.96 -4.59,-0.96l0.01 0zm-1.52 -8.77c1.62,0 3.13,-0.3 4.54,-0.91 1.41,-0.6 2.66,-1.44 3.73,-2.52 1.08,-1.07 1.92,-2.32 2.53,-3.73 0.6,-1.41 0.9,-2.92 0.9,-4.54 0,-1.61 -0.3,-3.14 -0.9,-4.58 -0.61,-1.45 -1.45,-2.71 -2.53,-3.79 -1.07,-1.07 -2.32,-1.91 -3.73,-2.52 -1.41,-0.6 -2.92,-0.9 -4.54,-0.9l-16.33 0 0 23.49 16.33 0zm53.15 42.15c-2.76,0 -5.36,-0.54 -7.82,-1.61 -2.45,-1.08 -4.59,-2.52 -6.4,-4.34 -1.82,-1.81 -3.26,-3.95 -4.34,-6.4 -1.07,-2.46 -1.61,-5.06 -1.61,-7.82l0 -31.26 8.67 0 0 31.26c0,1.61 0.31,3.12 0.91,4.54 0.61,1.41 1.43,2.64 2.47,3.68 1.04,1.04 2.25,1.86 3.63,2.47 1.38,0.61 2.87,0.91 4.49,0.91 1.61,0 3.12,-0.31 4.53,-0.91 1.41,-0.61 2.64,-1.43 3.68,-2.47 1.04,-1.04 1.87,-2.27 2.47,-3.68 0.61,-1.41 0.91,-2.93 0.91,-4.54l0 -31.26 8.57 0 0 53.85c0,2.82 -0.57,5.46 -1.71,7.91 -1.15,2.46 -2.71,4.59 -4.69,6.41 -1.99,1.82 -4.32,3.25 -7.01,4.29 -2.69,1.04 -5.58,1.56 -8.68,1.56l0 -8.57c1.89,0 3.65,-0.31 5.3,-0.91 1.65,-0.61 3.07,-1.44 4.28,-2.52 1.21,-1.08 2.17,-2.3 2.88,-3.68 0.7,-1.38 1.06,-2.87 1.06,-4.49l0 -6.05c-1.68,1.15 -3.5,2.04 -5.45,2.67 -1.95,0.64 -4,0.96 -6.15,0.96l0.01 0zm52.53 -74.31l8.78 0 0 53.74c0,1.62 0.32,3.14 0.95,4.59 0.64,1.44 1.48,2.71 2.52,3.78 1.04,1.08 2.29,1.92 3.74,2.52 1.44,0.61 2.97,0.91 4.58,0.91 1.62,0 3.15,-0.3 4.59,-0.91 1.45,-0.6 2.71,-1.44 3.78,-2.52 1.08,-1.07 1.94,-2.33 2.57,-3.78 0.64,-1.45 0.96,-2.97 0.96,-4.59l0 -53.74 8.77 0 0 53.74c0,1.62 0.31,3.14 0.91,4.59 0.61,1.44 1.45,2.71 2.52,3.78 1.08,1.08 2.34,1.92 3.79,2.52 1.44,0.61 2.97,0.91 4.58,0.91 1.62,0 3.15,-0.3 4.59,-0.91 1.44,-0.6 2.69,-1.44 3.73,-2.52 1.04,-1.07 1.88,-2.33 2.52,-3.78 0.64,-1.45 0.96,-2.97 0.96,-4.59l0 -53.74 8.77 0 0 53.74c0,2.89 -0.53,5.58 -1.61,8.07 -1.07,2.49 -2.55,4.65 -4.44,6.5 -1.88,1.85 -4.06,3.31 -6.55,4.39 -2.49,1.07 -5.14,1.61 -7.96,1.61 -3.3,0 -6.36,-0.7 -9.18,-2.11 -2.82,-1.41 -5.18,-3.3 -7.06,-5.65 -1.88,2.35 -4.23,4.23 -7.06,5.65 -2.82,1.41 -5.88,2.11 -9.17,2.11 -2.83,0 -5.49,-0.53 -7.97,-1.61 -2.49,-1.08 -4.67,-2.54 -6.55,-4.39 -1.88,-1.85 -3.36,-4.02 -4.44,-6.5 -1.07,-2.49 -1.61,-5.18 -1.61,-8.07l0 -53.74 -0.01 0zm128.37 44.06c-0.54,-1.88 -1.33,-3.64 -2.37,-5.29 -1.04,-1.65 -2.31,-3.06 -3.78,-4.24 -1.48,-1.17 -3.15,-2.1 -4.99,-2.77 -1.85,-0.67 -3.82,-1.01 -5.9,-1.01 -2.09,0 -4.06,0.34 -5.9,1.01 -1.85,0.67 -3.52,1.6 -5,2.77 -1.48,1.18 -2.75,2.59 -3.83,4.24 -1.07,1.64 -1.85,3.41 -2.32,5.29l34.09 0zm-17.04 30.56c-3.63,0 -7.04,-0.69 -10.24,-2.07 -3.19,-1.38 -5.98,-3.26 -8.37,-5.65 -2.38,-2.39 -4.26,-5.16 -5.64,-8.32 -1.38,-3.16 -2.07,-6.55 -2.07,-10.18 0,-3.64 0.69,-7.06 2.07,-10.29 1.37,-3.23 3.26,-6.02 5.64,-8.37 2.39,-2.35 5.18,-4.22 8.37,-5.6 3.2,-1.37 6.61,-2.06 10.24,-2.06 3.63,0 7.04,0.69 10.23,2.06 3.2,1.38 5.97,3.25 8.32,5.6 2.35,2.35 4.22,5.14 5.6,8.37 1.38,3.23 2.07,6.65 2.07,10.29 0,0.47 0,0.97 0,1.51 0,0.54 -0.07,1.44 -0.2,2.72l-43.06 0c0.47,1.95 1.25,3.73 2.32,5.35 1.08,1.61 2.35,3.02 3.83,4.23 1.48,1.21 3.15,2.15 5,2.82 1.85,0.68 3.81,1.01 5.9,1.01 1.61,0 3.22,-0.42 4.84,-1.26 1.61,-0.84 3.16,-1.97 4.64,-3.38l6.05 6.05c-2.22,2.15 -4.66,3.88 -7.32,5.2 -2.65,1.31 -5.39,1.96 -8.21,1.96l-0.01 0.01zm62.21 -52.64c3.63,0 7.06,0.69 10.29,2.07 3.23,1.37 6.04,3.24 8.42,5.59 2.38,2.36 4.26,5.15 5.65,8.37 1.37,3.23 2.06,6.66 2.06,10.29 0,3.63 -0.68,7.02 -2.06,10.18 -1.38,3.16 -3.27,5.93 -5.65,8.32 -2.39,2.39 -5.19,4.27 -8.42,5.65 -3.23,1.37 -6.66,2.06 -10.29,2.06 -3.63,0 -7.02,-0.69 -10.18,-2.06 -3.16,-1.38 -5.93,-3.26 -8.32,-5.65 -2.39,-2.39 -4.27,-5.16 -5.65,-8.32 -1.37,-3.16 -2.06,-6.55 -2.06,-10.18l0 -48.61 8.57 0 0 29.14c2.35,-2.08 5.04,-3.74 8.06,-4.99 3.03,-1.24 6.22,-1.86 9.58,-1.86zm0 8.67c-2.42,0 -4.7,0.46 -6.85,1.36 -2.16,0.91 -4.02,2.17 -5.6,3.79 -1.58,1.61 -2.84,3.49 -3.78,5.64 -0.95,2.15 -1.41,4.44 -1.41,6.86 0,2.42 0.47,4.71 1.41,6.86 0.94,2.15 2.2,4.02 3.78,5.59 1.58,1.58 3.44,2.84 5.6,3.78 2.15,0.95 4.43,1.41 6.85,1.41 2.49,0 4.81,-0.47 6.96,-1.41 2.15,-0.94 4.02,-2.2 5.6,-3.78 1.58,-1.58 2.82,-3.44 3.73,-5.59 0.91,-2.16 1.36,-4.44 1.36,-6.86 0,-2.42 -0.45,-4.71 -1.36,-6.86 -0.91,-2.15 -2.15,-4.03 -3.73,-5.64 -1.58,-1.62 -3.45,-2.88 -5.6,-3.79 -2.15,-0.9 -4.47,-1.36 -6.96,-1.36zm60.51 43.46c-3.64,0 -7.03,-0.69 -10.19,-2.06 -3.16,-1.38 -5.93,-3.25 -8.32,-5.6 -2.38,-2.35 -4.26,-5.13 -5.65,-8.32 -1.37,-3.19 -2.06,-6.6 -2.06,-10.24 0,-3.63 0.69,-7.04 2.06,-10.23 1.38,-3.19 3.27,-5.98 5.65,-8.37 2.39,-2.39 5.16,-4.27 8.32,-5.65 3.16,-1.38 6.55,-2.07 10.19,-2.07 2.82,0 5.57,0.66 8.26,1.97 2.69,1.31 5.15,3.07 7.37,5.29l-6.05 6.05c-1.48,-1.41 -3.03,-2.53 -4.65,-3.38 -1.61,-0.84 -3.26,-1.26 -4.94,-1.26 -2.42,0 -4.7,0.46 -6.85,1.37 -2.15,0.9 -4.02,2.16 -5.6,3.78 -1.58,1.61 -2.84,3.49 -3.78,5.64 -0.95,2.15 -1.41,4.44 -1.41,6.86 0,2.42 0.47,4.71 1.41,6.86 0.94,2.15 2.2,4.01 3.78,5.59 1.58,1.58 3.45,2.84 5.6,3.78 2.15,0.95 4.43,1.41 6.85,1.41 1.68,0 3.33,-0.4 4.94,-1.21 1.62,-0.8 3.16,-1.95 4.65,-3.42l6.05 6.05c-2.22,2.22 -4.68,3.96 -7.37,5.24 -2.69,1.28 -5.44,1.91 -8.26,1.91l0 0.01zm22.68 -74.51l8.57 0 0 60.7c0,1.55 0.73,2.86 2.17,3.93 1.44,1.08 3.18,1.61 5.19,1.61l0 8.57c-2.21,0 -4.28,-0.36 -6.19,-1.1 -1.92,-0.74 -3.6,-1.75 -5.05,-3.03 -1.44,-1.27 -2.58,-2.77 -3.42,-4.48 -0.84,-1.72 -1.26,-3.55 -1.26,-5.5l0 -60.7 -0.01 0zm44.37 22.28c3.63,0 7.05,0.69 10.24,2.07 3.19,1.38 5.98,3.25 8.37,5.6 2.39,2.35 4.27,5.14 5.64,8.37 1.38,3.23 2.07,6.66 2.07,10.28 0,3.63 -0.69,7.04 -2.07,10.24 -1.37,3.19 -3.25,5.97 -5.64,8.32 -2.39,2.35 -5.18,4.22 -8.37,5.59 -3.19,1.38 -6.61,2.07 -10.24,2.07 -3.63,0 -7.02,-0.69 -10.18,-2.07 -3.16,-1.37 -5.93,-3.24 -8.32,-5.59 -2.39,-2.35 -4.27,-5.13 -5.65,-8.32 -1.37,-3.2 -2.06,-6.61 -2.06,-10.24 0,-3.63 0.68,-7.05 2.06,-10.28 1.38,-3.23 3.26,-6.02 5.65,-8.37 2.39,-2.35 5.16,-4.22 8.32,-5.6 3.16,-1.38 6.55,-2.07 10.18,-2.07zm0 8.68c-2.42,0 -4.7,0.45 -6.85,1.36 -2.15,0.9 -4.04,2.17 -5.65,3.78 -1.61,1.61 -2.87,3.49 -3.78,5.65 -0.91,2.14 -1.36,4.43 -1.36,6.85 0,2.42 0.45,4.71 1.36,6.86 0.91,2.15 2.17,4.02 3.78,5.6 1.61,1.58 3.5,2.83 5.65,3.78 2.15,0.94 4.43,1.41 6.85,1.41 2.43,0 4.71,-0.47 6.86,-1.41 2.15,-0.94 4.04,-2.2 5.65,-3.78 1.61,-1.58 2.87,-3.45 3.78,-5.6 0.91,-2.15 1.36,-4.44 1.36,-6.86 0,-2.42 -0.45,-4.71 -1.36,-6.85 -0.91,-2.16 -2.17,-4.04 -3.78,-5.65 -1.61,-1.61 -3.5,-2.87 -5.65,-3.78 -2.15,-0.91 -4.43,-1.36 -6.86,-1.36zm48.1 21.37c-1.88,0 -3.64,-0.33 -5.29,-1.01 -1.65,-0.67 -3.11,-1.59 -4.39,-2.77 -1.27,-1.18 -2.3,-2.57 -3.07,-4.18 -0.78,-1.62 -1.2,-3.36 -1.26,-5.25 -0.07,-0.4 -0.1,-0.92 -0.1,-1.56 0,-0.64 0.03,-1.16 0.1,-1.56 0.07,-1.82 0.48,-3.53 1.26,-5.15 0.77,-1.61 1.8,-3.02 3.07,-4.23 1.28,-1.21 2.74,-2.15 4.39,-2.82 1.65,-0.68 3.41,-1.01 5.29,-1.01l19.37 0 0 8.67 -19.37 0c-1.41,0 -2.63,0.49 -3.67,1.47 -1.04,0.97 -1.63,2.2 -1.77,3.67 -0.13,0.68 -0.13,1.38 0,2.12 0.14,1.41 0.72,2.61 1.77,3.58 1.04,0.98 2.26,1.46 3.67,1.46l6.96 0c1.88,0 3.67,0.36 5.35,1.06 1.68,0.71 3.14,1.66 4.38,2.87 1.25,1.21 2.25,2.63 3.03,4.24 0.77,1.61 1.19,3.36 1.26,5.24l0 2.82c0,1.95 -0.39,3.75 -1.16,5.4 -0.77,1.65 -1.78,3.11 -3.02,4.38 -1.24,1.28 -2.72,2.27 -4.44,2.98 -1.71,0.7 -3.54,1.06 -5.49,1.06l-19.87 0 0 -8.57 19.87 0c1.34,0 2.5,-0.44 3.47,-1.31 0.98,-0.88 1.63,-1.92 1.97,-3.13l0 -0.4c0,-0.14 0.02,-0.26 0.05,-0.36 0.03,-0.1 0.05,-0.22 0.05,-0.35l0 -1.92c-0.07,-1.54 -0.62,-2.83 -1.66,-3.88 -1.04,-1.04 -2.34,-1.56 -3.88,-1.56l-6.86 0 -0.01 0zm30.86 -41.04l8.67 0 0 12.3 17.65 0 0 8.57 -17.65 0 0 28.34c0,1.48 0.53,2.74 1.57,3.78 1.04,1.04 2.33,1.56 3.88,1.56 1.55,0 2.84,-0.7 3.88,-2.12 1.04,-1.41 1.57,-3.12 1.57,-5.13l8.57 0c0,2.21 -0.37,4.28 -1.11,6.19 -0.74,1.92 -1.73,3.6 -2.98,5.05 -1.24,1.44 -2.72,2.58 -4.44,3.42 -1.71,0.84 -3.54,1.26 -5.49,1.26 -1.95,0 -3.78,-0.37 -5.49,-1.1 -1.72,-0.74 -3.22,-1.75 -4.49,-3.03 -1.28,-1.27 -2.29,-2.75 -3.02,-4.43 -0.74,-1.68 -1.11,-3.5 -1.11,-5.45l0 -49.21 -0.01 0zm75.73 33.17c-0.54,-1.88 -1.33,-3.64 -2.37,-5.29 -1.04,-1.65 -2.3,-3.06 -3.78,-4.23 -1.48,-1.18 -3.15,-2.1 -4.99,-2.78 -1.85,-0.67 -3.82,-1 -5.9,-1 -2.09,0 -4.06,0.33 -5.9,1 -1.85,0.68 -3.52,1.6 -4.99,2.78 -1.48,1.17 -2.76,2.58 -3.84,4.23 -1.07,1.65 -1.85,3.41 -2.32,5.29l34.09 0zm-17.04 30.56c-3.63,0 -7.04,-0.69 -10.24,-2.07 -3.19,-1.37 -5.98,-3.26 -8.37,-5.65 -2.38,-2.38 -4.26,-5.16 -5.64,-8.31 -1.38,-3.16 -2.07,-6.56 -2.07,-10.19 0,-3.63 0.69,-7.06 2.07,-10.28 1.38,-3.23 3.26,-6.02 5.64,-8.37 2.39,-2.36 5.18,-4.22 8.37,-5.6 3.2,-1.38 6.61,-2.07 10.24,-2.07 3.63,0 7.04,0.69 10.23,2.07 3.2,1.38 5.97,3.24 8.32,5.6 2.36,2.35 4.22,5.14 5.6,8.37 1.38,3.22 2.07,6.65 2.07,10.28 0,0.47 0,0.98 0,1.51 0,0.54 -0.07,1.45 -0.2,2.73l-43.06 0c0.47,1.95 1.25,3.73 2.32,5.34 1.08,1.61 2.36,3.02 3.83,4.23 1.48,1.22 3.15,2.16 5,2.83 1.85,0.67 3.81,1.01 5.9,1.01 1.61,0 3.22,-0.43 4.84,-1.27 1.61,-0.83 3.16,-1.96 4.64,-3.37l6.05 6.05c-2.22,2.15 -4.66,3.88 -7.32,5.19 -2.65,1.31 -5.39,1.97 -8.21,1.97l-0.01 0zm44.67 -1.21l-8.68 0 0 -25.21c0,-3.63 0.74,-7.06 2.22,-10.28 1.48,-3.23 3.5,-6.02 6.05,-8.37 2.56,-2.36 5.53,-4.22 8.93,-5.6 3.39,-1.38 7.04,-2.07 10.94,-2.07l0 8.68c-2.69,0 -5.21,0.45 -7.56,1.36 -2.35,0.9 -4.42,2.17 -6.2,3.78 -1.79,1.61 -3.18,3.49 -4.19,5.65 -1.01,2.14 -1.51,4.43 -1.51,6.85l0 25.21zm-587.29 -374.68c-0.09,-0.05 -0.21,-0.24 -0.26,-0.16l-1.34 -0.27c-0.56,-0.03 -1.44,0.02 -2.04,0.02l-30.17 0c-11.3,0 -22.94,0.28 -34.19,-0.02l-0.01 -64.13 -0.97 0.16 -0.01 -0.01 -67.61 10.6 0.01 151.95c0,30.97 -3.11,60.08 16.06,85.11 26.79,34.97 79.45,31.29 120.3,31.33l0.2 -53.92 -48.28 -0.06c-14.06,-1.31 -19.65,-13.94 -19.7,-28.61l0.01 0 0 -78.09 59.53 -0.01c1.48,0 2.95,0 4.43,0l3.18 -0.02c0.88,-0.18 0.35,-0.01 0.84,-0.39l-0.01 0 0.03 -53.48zm-987.41 -97.13c-0.76,1.34 -0.46,3.88 -0.46,6.23 0,8.79 -0.49,42.74 0.2,46.06l77.22 0.2 0.01 239.11c4.03,1.05 27.35,4.47 33.19,5.37 5.64,0.87 11.08,1.75 16.79,2.65 2.89,0.45 14.07,2.59 16.29,2.34l0.1 -249.67 76.83 -0.01 0.19 -52.29 -220.36 0 0 0.01zm622.59 65.5c2.18,-2.86 14.24,-10.79 18.63,-13.29 8.48,-4.84 10.53,-6.4 20.58,-10.8 33.51,-14.68 69.22,-18.6 103.35,-3.61 7.46,3.28 13.84,6.73 20.39,10.99 2.22,1.45 16.4,11.19 17.74,13.9 2.94,0.72 8.45,11.26 19.77,8.07 11.95,-3.36 14.69,-17.5 5.67,-26.12 -6.43,-6.14 -17.17,-14.46 -23.92,-19.13 -40.41,-27.94 -87.04,-34.22 -136.06,-18.96 -20.35,6.34 -39.5,16.96 -56.76,28.91 -4.34,3.01 -12.85,9.22 -15.22,13.34 -8.15,14.14 8.89,28.91 21.72,19.72 0.83,-0.59 1.31,-1.06 2,-1.64 1.41,-1.19 1.04,-1.16 2.1,-1.38l0.01 0zm187.22 257.38c-2.04,1.23 -4.81,4.7 -6.84,6.53 -0.97,0.88 -1.43,1.05 -2.42,2.01 -3.01,2.94 -6.39,5.48 -9.69,8.01 -21.86,16.82 -46.22,27.62 -75.83,29.55 -9.88,0.64 -22.94,-1.27 -31.62,-3.66 -11.69,-3.24 -26.44,-9.65 -36.3,-16.4 -1.8,-1.23 -3.35,-2.25 -5.3,-3.57 -1.75,-1.17 -3.29,-2.39 -4.92,-3.52 -6.04,-4.18 -14.71,-13.06 -19.75,-15.34 -7.65,-2.63 -15.09,-0.03 -19.31,6.53 -4.46,6.91 -1.71,16.71 2.9,20.44l7.32 6.36c8.85,7.3 14.14,11.33 24.47,17.76 47.79,29.78 101.95,30.95 152.15,3.92 3.08,-1.66 6.07,-3.25 9,-5.1 12.12,-7.67 17.35,-11.82 27.98,-20.68 1.35,-1.13 2.36,-2.47 3.68,-3.55 1.55,-1.26 2.19,-1.86 3.58,-3.25l3.34 -3.91c4.57,-6.67 3.1,-15.42 -1.92,-20.44 -4.94,-4.93 -14.17,-6.61 -20.52,-1.69zm-110.51 -416.2c-13.12,1.34 -17.33,0.59 -32.7,3.15 -32.07,5.33 -52.91,13.06 -81.66,26.6 -12.75,6 -34.03,19.47 -44.37,27.61 -5.02,3.95 -15.09,11.62 -19.77,16.43 -2.39,2.47 -6.84,5.99 -8.37,9.71 -6.03,14.63 11.84,29.12 25.28,15.65 7.98,-8 19.87,-17.45 29.78,-24.14 46.97,-31.72 95.39,-46.83 153.65,-45.05 40.97,1.25 77.36,13.98 113.2,30.78 9.01,4.22 25.72,13.7 34.48,19.41l21.7 14.5c15.6,10.98 31.2,-6.12 22.14,-20.1 -2.12,-3.27 -6.47,-5.49 -9.78,-7.94 -21.84,-16.15 -56.21,-34.33 -81.72,-44.57 -27.16,-10.91 -57.08,-18.59 -86.85,-21.25 -9.88,-0.87 -25.06,-1.81 -35.01,-0.79zm-192.16 505.78c1.6,8.43 9.61,12.46 17.14,17.87 52,37.31 115.66,62.78 182.36,62.78 44.44,0 79.59,-7.98 117.28,-22.9 16.79,-6.65 32.19,-14.93 46.61,-23.38 5.25,-3.07 27.25,-17.54 30.75,-21.93 12.26,-15.41 -7.43,-35.78 -23.09,-22.29 -8.25,7.1 -27.04,18.89 -37.03,24.11 -7.42,3.87 -15.24,7.84 -23.54,11.43 -33.15,14.33 -76.04,24.96 -117.01,22.95 -42.06,-2.07 -77.36,-12.11 -111.1,-28.85 -14.69,-7.29 -36.4,-20.07 -49.08,-29.75 -4.81,-3.68 -10.8,-8.9 -17.18,-8.96 -9.97,-0.11 -18.11,8.39 -16.11,18.92zm798.59 -313.92c-0.85,0.77 -10.78,2.24 -14.45,3.23 -34.51,9.33 -54.41,29.98 -58.75,66.64 -1.6,13.51 -0.8,102.78 -0.8,125 0,5.61 -0.42,13.12 0.16,18.5 5.09,-1.44 66.25,1.16 67.91,-0.5 1.15,-2.03 0.31,-101.98 0.31,-113.73 0,-17.96 -1.13,-38.35 12.55,-44.76 7.11,-3.34 18.05,-2.09 26.66,-2.09 9.59,0 19.17,0 28.76,0l0.2 -53.91c-15.22,0 -32.59,-0.34 -47.47,0.42 -3.91,0.19 -12.12,1.58 -15.08,1.2zm-656.31 47.95c0.4,0.22 25.97,36.54 26.95,38.73 -0.98,2.18 -3.21,4.96 -4.56,7l-43.78 64.42c-3.1,4.69 -6.5,9.82 -9.75,14.39 -3.5,4.91 -6.33,9.68 -9.73,14.39l-9.72 14.44 65.28 -0.01c0.44,-0.99 4.99,-8.36 5.93,-8.85 0.89,-2.17 17.45,-26.76 19.07,-29.2 2.42,-3.66 17.84,-27.47 19.14,-28.63 0.98,0.87 3.77,5.33 4.7,6.88l14.28 21.5c2.6,4.02 18.11,26.88 18.72,28.94 0.89,0.45 5.88,8.1 6.44,9.36l65.15 0 -28.93 -42.95c-3.22,-4.85 -6.44,-9.76 -9.77,-14.38l-16.91 -24.91c-0.73,-1.08 -1.55,-2.52 -2.39,-3.64 -1.78,-2.41 -3.28,-4.75 -4.93,-7.14l-9.71 -14.43c-1.65,-2.29 -3.62,-4.98 -4.78,-7.18l8.28 -12.14c6.25,-9.17 15.53,-21.87 21.21,-30.66 5.67,-8.75 37.32,-53.02 37.79,-55.44 -2.68,0.96 -55.44,0.3 -63.15,0.3l-36 51.73 -17.85 -25.64c-2.83,-4.29 -6.03,-8.71 -8.87,-12.85l-8.97 -13.24 -63.36 0c0.61,1.66 8.06,12.13 9.98,14.85l25.28 36.67c1.19,1.68 4.59,6.12 4.96,7.69zm-572.46 -94l0.01 0 -0.01 0zm230.47 156.04c0.07,7.38 0.63,16 -2.56,21.78 -6.65,12.07 -24.5,9.2 -39.06,9.2 -6.8,0 -15.36,-0.15 -20.55,-3.59 -6.11,-4.05 -5.18,-9.78 3.43,-13.54 5.61,-2.45 11.76,-4.43 18.12,-6.01 8.82,-2.2 32.05,-7.06 40.62,-7.84zm-49.26 -124.68c-18.12,0.11 -44.95,6.35 -57.45,14.56 -7.77,5.1 -13.52,9.97 -18.24,17.97 -4.28,7.25 -8.26,19.23 -7.27,29.42 1.41,0.73 59.87,9.76 66.27,10.63 -0.01,-2.48 0.19,-7.38 1.45,-9.03 0.98,-5.2 6.42,-9.32 11.73,-10.75 5.99,-1.6 14.24,-1.11 20.8,-1.11 8.29,0 22.09,-0.82 28.72,4.07 1.07,0.79 1.95,1.82 2.52,3.12 0.33,0.78 0.55,1.52 0.57,2.28l-0.53 2.18c-0.79,7.68 -40.16,15.04 -47.34,16.36 -23.66,4.38 -41.62,5.31 -61.08,18.52 -9.13,6.2 -17.08,15.71 -20.56,27.7 -5.07,17.47 -2.92,38.8 6.68,51.98 8.72,11.95 21.22,19.5 39.51,24.44 29.15,7.87 84.53,8.12 113.05,-4.05 4.19,-1.78 7.04,-3.23 10.73,-5.36 4.9,-2.82 5.42,-3.74 9.31,-6.77 3.54,-2.77 8.38,-9.15 10.54,-13.59 0.61,-1.25 1.93,-4.38 2.5,-5.24 1.4,-5.51 2.66,-9.08 3.29,-15.04 0.77,-7.41 0.24,-76.48 0.24,-89.13 0,-10.87 -1.73,-21.26 -6.51,-29.3 -5.12,-8.62 -9.75,-12.87 -17.5,-18.28 -20.96,-14.61 -67.08,-18.17 -91.42,-15.57l-0.01 -0.01zm813.07 98.76c0.08,-8.09 -0.77,-16.06 2.75,-22.6 6.62,-12.29 26.22,-9.18 40.49,-9.18 7.61,0 15.4,0.16 21,3.73 1.99,1.28 5.13,5.02 3.29,8.67 -0.99,1.96 -4.74,4.06 -7.16,5.31 -9.63,4.95 -50.09,13.62 -60.37,14.07zm119.77 106.63c1.55,-2.85 6.41,-5.21 12.01,-17.52 3.12,-6.86 4.69,-16.22 4.56,-24.58l-68.36 -10.64c0.01,23.69 -19.23,21.31 -34.39,21.31 -8.29,0 -19.1,0.64 -26.05,-1.88 -3.5,-1.27 -6.55,-3.18 -7.32,-6.83 -0.94,-4.43 2.83,-6.44 5.6,-8 20.09,-11.26 66.58,-13.15 89.04,-21.97 13.79,-5.41 25.48,-13.31 32.01,-23.49 11.72,-18.28 13.47,-46.68 1.16,-65.84 -7.45,-11.6 -18.66,-19.02 -31.7,-23.82 -6.54,-2.42 -12.22,-3.93 -18.87,-5.26l-1.65 -0.42c-0.09,-0.04 -0.23,-0.11 -0.3,-0.14l-0.61 -0.31c-1.52,0.32 -12.88,-1.5 -15.74,-1.8 -5.51,-0.58 -10.89,-0.7 -16.72,-0.94 -35.83,-1.48 -88.53,3.19 -105.31,37.9 -4.5,9.3 -5.51,18.71 -5.51,30.1 0,23.86 0,47.72 0,71.59 0,12.47 -0.31,21.12 3.51,32.07 9.46,27.03 38.36,37.24 66.35,41 27.97,3.76 68.91,2.99 95.72,-7.44 4.23,-1.64 8.33,-3.45 11.98,-5.73l10.59 -7.36zm-793.88 52.03c0,3.11 -1.07,2.36 6.04,3.47 3.04,0.47 5.64,0.9 8.6,1.35 7.99,1.23 49.51,8.23 51.73,7.85l0 -64.75c13.27,1.13 16.61,2.63 32.38,2.61 20.12,-0.02 40.59,-2.41 58.6,-10.58 8.47,-3.84 14.36,-8.08 20.63,-14.36 23.43,-23.42 20.52,-53.28 20.52,-83.25 0,-5.77 0,-11.54 0,-17.3 0,-2.72 -0.94,-15.91 -0.71,-16.69 -0.07,-0.1 -0.14,-0.39 -0.16,-0.33l-3.08 -12.83c-9.44,-29.95 -31.18,-44.72 -63.67,-50.6 -28.52,-5.16 -70.77,-3.75 -97.05,11.91 -3.91,2.33 -6.54,4.39 -9.63,6.86 -12.28,9.8 -19.93,26.34 -22.67,42.46 -2.34,13.73 -1.53,47.69 -1.53,63.46 0,43.58 0.05,87.15 0,130.72z"/>
  </g>
 </g>
</svg>
